LibreBaskerville-Regular.ufo
<glyph name="quotesingle" format="1">
  <advance width="215"/>
  <unicode hex="0027"/>
  <outline>
    <contour>
      <point x="122" y="564" type="line"/>
      <point x="132" y="640"/>
      <point x="154" y="747"/>
      <point x="154" y="780" type="curve" smooth="yes"/>
      <point x="154" y="809"/>
      <point x="134" y="830"/>
      <point x="107" y="830" type="curve" smooth="yes"/>
      <point x="80" y="830"/>
      <point x="60" y="809"/>
      <point x="60" y="781" type="curve" smooth="yes"/>
      <point x="60" y="749"/>
      <point x="83" y="640"/>
      <point x="93" y="564" type="curve"/>
    </contour>
  </outline>
</glyph>
<glyph name="parenright" format="1">
  <advance width="332"/>
  <unicode hex="0029"/>
  <outline>
    <contour>
      <point x="20" y="803" type="line"/>
      <point x="151" y="626"/>
      <point x="185" y="521"/>
      <point x="185" y="340" type="curve" smooth="yes"/>
      <point x="185" y="120"/>
      <point x="135" y="-29"/>
      <point x="12" y="-166" type="curve"/>
      <point x="43" y="-194" type="line"/>
      <point x="202" y="-39"/>
      <point x="285" y="139"/>
      <point x="285" y="323" type="curve" smooth="yes"/>
      <point x="285" y="503"/>
      <point x="205" y="677"/>
      <point x="51" y="831" type="curve"/>
    </contour>
  </outline>
</glyph>
<glyph name="asterisk" format="1">
  <advance width="516"/>
  <unicode hex="002A"/>
  <outline>
    <contour>
      <point x="272" y="539" type="curve"/>
      <point x="272" y="457"/>
      <point x="301" y="417"/>
      <point x="301" y="394" type="curve" smooth="yes"/>
      <point x="301" y="370"/>
      <point x="281" y="349"/>
      <point x="257" y="349" type="curve" smooth="yes"/>
      <point x="229" y="349"/>
      <point x="211" y="371"/>
      <point x="211" y="398" type="curve" smooth="yes"/>
      <point x="211" y="417"/>
      <point x="240" y="453"/>
      <point x="242" y="539" type="curve"/>
      <point x="133" y="478"/>
      <point x="156" y="435"/>
      <point x="109" y="435" type="curve" smooth="yes"/>
      <point x="84" y="435"/>
      <point x="63" y="456"/>
      <point x="63" y="481" type="curve" smooth="yes"/>
      <point x="63" y="543"/>
      <point x="137" y="514"/>
      <point x="227" y="565" type="curve"/>
      <point x="146" y="610"/>
      <point x="114" y="595"/>
      <point x="89" y="610" type="curve" smooth="yes"/>
      <point x="73" y="619"/>
      <point x="65" y="634"/>
      <point x="65" y="650" type="curve" smooth="yes"/>
      <point x="65" y="677"/>
      <point x="88" y="695"/>
      <point x="112" y="695" type="curve" smooth="yes"/>
      <point x="147" y="695"/>
      <point x="170" y="632"/>
      <point x="243" y="591" type="curve"/>
      <point x="243" y="631"/>
      <point x="237" y="667"/>
      <point x="226" y="693" type="curve"/>
      <point x="219" y="704"/>
      <point x="213" y="723"/>
      <point x="213" y="734" type="curve" smooth="yes"/>
      <point x="213" y="760"/>
      <point x="232" y="780"/>
      <point x="258" y="780" type="curve" smooth="yes"/>
      <point x="284" y="780"/>
      <point x="304" y="760"/>
      <point x="304" y="734" type="curve" smooth="yes"/>
      <point x="304" y="723"/>
      <point x="297" y="706"/>
      <point x="291" y="693" type="curve" smooth="yes"/>
      <point x="278" y="665"/>
      <point x="274" y="633"/>
      <point x="273" y="591" type="curve"/>
      <point x="370" y="648"/>
      <point x="360" y="695"/>
      <point x="404" y="695" type="curve" smooth="yes"/>
      <point x="429" y="695"/>
      <point x="451" y="675"/>
      <point x="451" y="650" type="curve" smooth="yes"/>
      <point x="451" y="586"/>
      <point x="397" y="627"/>
      <point x="289" y="565" type="curve"/>
      <point x="388" y="507"/>
      <point x="453" y="547"/>
      <point x="453" y="480" type="curve" smooth="yes"/>
      <point x="453" y="453"/>
      <point x="430" y="436"/>
      <point x="406" y="436" type="curve" smooth="yes"/>
      <point x="390" y="436"/>
      <point x="375" y="442"/>
      <point x="355" y="474" type="curve" smooth="yes"/>
      <point x="343" y="493"/>
      <point x="312" y="519"/>
    </contour>
  </outline>
</glyph>
<glyph name="period" format="1">
  <advance width="265"/>
  <unicode hex="002E"/>
  <outline>
    <contour>
      <point x="67" y="55" type="curve" smooth="yes"/>
      <point x="67" y="19"/>
      <point x="96" y="-10"/>
      <point x="132" y="-10" type="curve" smooth="yes"/>
      <point x="169" y="-10"/>
      <point x="198" y="19"/>
      <point x="198" y="55" type="curve" smooth="yes"/>
      <point x="198" y="92"/>
      <point x="169" y="121"/>
      <point x="132" y="121" type="curve" smooth="yes"/>
      <point x="96" y="121"/>
      <point x="67" y="92"/>
    </contour>
  </outline>
</glyph>
<glyph name="five" format="1">
  <advance width="568"/>
  <unicode hex="0035"/>
  <outline>
    <contour>
      <point x="245" y="661" type="line"/>
      <point x="333" y="661" type="line" smooth="yes"/>
      <point x="416" y="661"/>
      <point x="473" y="704"/>
      <point x="489" y="780" type="curve"/>
      <point x="483" y="781" type="line"/>
      <point x="458" y="769"/>
      <point x="411" y="762"/>
      <point x="350" y="762" type="curve" smooth="yes"/>
      <point x="298" y="762"/>
      <point x="262" y="768"/>
      <point x="233" y="780" type="curve"/>
      <point x="126" y="367" type="line" smooth="yes"/>
      <point x="125" y="364"/>
      <point x="125" y="361"/>
      <point x="125" y="359" type="curve" smooth="yes"/>
      <point x="125" y="347"/>
      <point x="134" y="339"/>
      <point x="147" y="339" type="curve" smooth="yes"/>
      <point x="158" y="339"/>
      <point x="163" y="343"/>
      <point x="171" y="367" type="curve" smooth="yes"/>
      <point x="193" y="433"/>
      <point x="228" y="462"/>
      <point x="283" y="462" type="curve" smooth="yes"/>
      <point x="356" y="462"/>
      <point x="385" y="410"/>
      <point x="385" y="297" type="curve" smooth="yes"/>
      <point x="385" y="138"/>
      <point x="323" y="34"/>
      <point x="219" y="34" type="curve" smooth="yes"/>
      <point x="94" y="34"/>
      <point x="153" y="185"/>
      <point x="70" y="185" type="curve" smooth="yes"/>
      <point x="39" y="185"/>
      <point x="22" y="164"/>
      <point x="22" y="128" type="curve" smooth="yes"/>
      <point x="22" y="48"/>
      <point x="103" y="-10"/>
      <point x="216" y="-10" type="curve" smooth="yes"/>
      <point x="381" y="-10"/>
      <point x="509" y="115"/>
      <point x="509" y="274" type="curve" smooth="yes"/>
      <point x="509" y="405"/>
      <point x="420" y="505"/>
      <point x="302" y="505" type="curve" smooth="yes"/>
      <point x="263" y="505"/>
      <point x="220" y="494"/>
      <point x="200" y="479" type="curve"/>
      <point x="198" y="482" type="line"/>
    </contour>
  </outline>
</glyph>
<glyph name="B" format="1">
  <advance width="767"/>
  <unicode hex="0042"/>
  <outline>
    <contour>
      <point x="38" y="0" type="line"/>
      <point x="38" y="38" type="line"/>
      <point x="141" y="41"/>
      <point x="158" y="58"/>
      <point x="158" y="152" type="curve" smooth="yes"/>
      <point x="158" y="618" type="line" smooth="yes"/>
      <point x="158" y="711"/>
      <point x="144" y="728"/>
      <point x="58" y="732" type="curve"/>
      <point x="58" y="770" type="line"/>
      <point x="357" y="770" type="line" smooth="yes"/>
      <point x="536" y="770"/>
      <point x="642" y="702"/>
      <point x="642" y="587" type="curve" smooth="yes"/>
      <point x="642" y="500"/>
      <point x="588" y="446"/>
      <point x="469" y="410" type="curve"/>
      <point x="469" y="406" type="line"/>
      <point x="551" y="397"/>
      <point x="587" y="386"/>
      <point x="628" y="358" type="curve" smooth="yes"/>
      <point x="686" y="317"/>
      <point x="717" y="262"/>
      <point x="717" y="200" type="curve" smooth="yes"/>
      <point x="717" y="130"/>
      <point x="675" y="65"/>
      <point x="605" y="30" type="curve" smooth="yes"/>
      <point x="560" y="7"/>
      <point x="514" y="0"/>
      <point x="398" y="0" type="curve" smooth="yes"/>
    </contour>
    <contour>
      <point x="401" y="43" type="curve" smooth="yes"/>
      <point x="522" y="43"/>
      <point x="582" y="94"/>
      <point x="582" y="198" type="curve" smooth="yes"/>
      <point x="582" y="273"/>
      <point x="551" y="326"/>
      <point x="489" y="356" type="curve" smooth="yes"/>
      <point x="447" y="376"/>
      <point x="416" y="380"/>
      <point x="308" y="380" type="curve" smooth="yes"/>
      <point x="263" y="380" type="line"/>
      <point x="263" y="157" type="line" smooth="yes"/>
      <point x="263" y="76"/>
      <point x="303" y="43"/>
    </contour>
    <contour>
      <point x="319" y="430" type="line" smooth="yes"/>
      <point x="402" y="430"/>
      <point x="424" y="434"/>
      <point x="457" y="454" type="curve" smooth="yes"/>
      <point x="499" y="480"/>
      <point x="516" y="515"/>
      <point x="516" y="575" type="curve" smooth="yes"/>
      <point x="516" y="680"/>
      <point x="466" y="723"/>
      <point x="357" y="723" type="curve" smooth="yes"/>
      <point x="280" y="723" type="line" smooth="yes"/>
      <point x="269" y="723"/>
      <point x="263" y="716"/>
      <point x="263" y="706" type="curve" smooth="yes"/>
      <point x="263" y="430" type="line"/>
    </contour>
  </outline>
</glyph>
<glyph name="C" format="1">
  <advance width="802"/>
  <unicode hex="0043"/>
  <outline>
    <contour>
      <point x="448" y="830" type="move" name="topcap"/>
    </contour>
    <contour>
      <point x="432" y="0" type="move" name="bottom"/>
    </contour>
    <contour>
      <point x="671" y="708" type="line"/>
      <point x="589" y="759"/>
      <point x="523" y="780"/>
      <point x="443" y="780" type="curve" smooth="yes"/>
      <point x="216" y="780"/>
      <point x="60" y="614"/>
      <point x="60" y="372" type="curve" smooth="yes"/>
      <point x="60" y="139"/>
      <point x="206" y="-10"/>
      <point x="432" y="-10" type="curve" smooth="yes"/>
      <point x="531" y="-10"/>
      <point x="615" y="19"/>
      <point x="686" y="79" type="curve"/>
      <point x="709" y="0" type="line"/>
      <point x="744" y="0" type="line"/>
      <point x="744" y="249" type="line"/>
      <point x="703" y="249" type="line"/>
      <point x="667" y="114"/>
      <point x="582" y="44"/>
      <point x="455" y="44" type="curve" smooth="yes"/>
      <point x="287" y="44"/>
      <point x="194" y="164"/>
      <point x="194" y="378" type="curve" smooth="yes"/>
      <point x="194" y="596"/>
      <point x="290" y="728"/>
      <point x="452" y="728" type="curve" smooth="yes"/>
      <point x="570" y="728"/>
      <point x="660" y="656"/>
      <point x="689" y="540" type="curve"/>
      <point x="726" y="540" type="line"/>
      <point x="717" y="770" type="line"/>
      <point x="689" y="770" type="line"/>
    </contour>
  </outline>
</glyph>
<glyph name="E" format="1">
  <advance width="726"/>
  <unicode hex="0045"/>
  <outline>
    <contour>
      <point x="379" y="830" type="move" name="topcap"/>
    </contour>
    <contour>
      <point x="379" y="0" type="move" name="bottom"/>
    </contour>
    <contour>
      <point x="260" y="710" type="line" smooth="yes"/>
      <point x="260" y="720"/>
      <point x="266" y="727"/>
      <point x="277" y="727" type="curve" smooth="yes"/>
      <point x="404" y="727" type="line" smooth="yes"/>
      <point x="540" y="727"/>
      <point x="591" y="700"/>
      <point x="607" y="594" type="curve"/>
      <point x="642" y="594" type="line"/>
      <point x="633" y="770" type="line"/>
      <point x="55" y="770" type="line"/>
      <point x="55" y="732" type="line"/>
      <point x="141" y="728"/>
      <point x="155" y="711"/>
      <point x="155" y="618" type="curve" smooth="yes"/>
      <point x="155" y="152" type="line" smooth="yes"/>
      <point x="155" y="58"/>
      <point x="139" y="41"/>
      <point x="45" y="38" type="curve"/>
      <point x="45" y="0" type="line"/>
      <point x="666" y="0" type="line"/>
      <point x="681" y="197" type="line"/>
      <point x="643" y="197" type="line"/>
      <point x="617" y="79"/>
      <point x="567" y="43"/>
      <point x="426" y="43" type="curve" smooth="yes"/>
      <point x="300" y="43"/>
      <point x="260" y="70"/>
      <point x="260" y="157" type="curve" smooth="yes"/>
      <point x="260" y="383" type="line"/>
      <point x="410" y="382"/>
      <point x="449" y="345"/>
      <point x="449" y="265" type="curve"/>
      <point x="484" y="265" type="line"/>
      <point x="484" y="538" type="line"/>
      <point x="449" y="538" type="line"/>
      <point x="449" y="457"/>
      <point x="404" y="423"/>
      <point x="260" y="423" type="curve"/>
    </contour>
  </outline>
</glyph>
<glyph name="N" format="1">
  <advance width="902"/>
  <unicode hex="004E"/>
  <outline>
    <contour>
      <point x="464" y="830" type="move" name="topcap"/>
    </contour>
    <contour>
      <point x="459" y="0" type="move" name="bottom"/>
    </contour>
    <contour>
      <point x="694" y="-10" type="line"/>
      <point x="219" y="616" type="line"/>
      <point x="215" y="616" type="line"/>
      <point x="215" y="189" type="line" smooth="yes"/>
      <point x="215" y="57"/>
      <point x="229" y="41"/>
      <point x="314" y="38" type="curve"/>
      <point x="314" y="0" type="line"/>
      <point x="45" y="0" type="line"/>
      <point x="45" y="38" type="line"/>
      <point x="139" y="41"/>
      <point x="155" y="58"/>
      <point x="155" y="182" type="curve" smooth="yes"/>
      <point x="155" y="588" type="line" smooth="yes"/>
      <point x="155" y="701"/>
      <point x="141" y="728"/>
      <point x="55" y="732" type="curve"/>
      <point x="55" y="770" type="line"/>
      <point x="253" y="770" type="line"/>
      <point x="690" y="187" type="line"/>
      <point x="694" y="187" type="line"/>
      <point x="694" y="581" type="line" smooth="yes"/>
      <point x="694" y="713"/>
      <point x="680" y="729"/>
      <point x="595" y="732" type="curve"/>
      <point x="595" y="770" type="line"/>
      <point x="864" y="770" type="line"/>
      <point x="864" y="732" type="line"/>
      <point x="770" y="729"/>
      <point x="754" y="712"/>
      <point x="754" y="588" type="curve" smooth="yes"/>
      <point x="754" y="-10" type="line"/>
    </contour>
  </outline>
</glyph>
<glyph name="V" format="1">
  <advance width="784"/>
  <unicode hex="0056"/>
  <outline>
    <contour>
      <point x="246" y="603" type="line" smooth="yes"/>
      <point x="228" y="649"/>
      <point x="222" y="670"/>
      <point x="222" y="689" type="curve" smooth="yes"/>
      <point x="222" y="717"/>
      <point x="239" y="731"/>
      <point x="313" y="731" type="curve"/>
      <point x="313" y="770" type="line"/>
      <point x="-13" y="770" type="line"/>
      <point x="-13" y="731" type="line"/>
      <point x="57" y="727"/>
      <point x="85" y="694"/>
      <point x="119" y="613" type="curve" smooth="yes"/>
      <point x="377" y="-10" type="line"/>
      <point x="412" y="-10" type="line"/>
      <point x="683" y="651" type="line" smooth="yes"/>
      <point x="706" y="707"/>
      <point x="731" y="725"/>
      <point x="792" y="732" type="curve"/>
      <point x="792" y="770" type="line"/>
      <point x="549" y="770" type="line"/>
      <point x="549" y="732" type="line"/>
      <point x="608" y="732"/>
      <point x="627" y="719"/>
      <point x="627" y="683" type="curve" smooth="yes"/>
      <point x="627" y="661"/>
      <point x="620" y="636"/>
      <point x="600" y="587" type="curve" smooth="yes"/>
      <point x="424" y="153" type="line"/>
    </contour>
  </outline>
</glyph>
<glyph name="Y" format="1">
  <advance width="733"/>
  <unicode hex="0059"/>
  <outline>
    <contour>
      <point x="408" y="830" type="move" name="topcap"/>
    </contour>
    <contour>
      <point x="114" y="646" type="line" smooth="yes"/>
      <point x="73" y="715"/>
      <point x="50" y="732"/>
      <point x="-5" y="732" type="curve"/>
      <point x="-5" y="770" type="line"/>
      <point x="310" y="770" type="line"/>
      <point x="310" y="732" type="line"/>
      <point x="244" y="732"/>
      <point x="219" y="723"/>
      <point x="219" y="698" type="curve" smooth="yes"/>
      <point x="219" y="685"/>
      <point x="226" y="665"/>
      <point x="242" y="638" type="curve" smooth="yes"/>
      <point x="397" y="373" type="line"/>
      <point x="401" y="373" type="line"/>
      <point x="514" y="563" type="line" smooth="yes"/>
      <point x="556" y="634"/>
      <point x="573" y="673"/>
      <point x="573" y="698" type="curve" smooth="yes"/>
      <point x="573" y="723"/>
      <point x="556" y="732"/>
      <point x="508" y="732" type="curve"/>
      <point x="508" y="770" type="line"/>
      <point x="737" y="770" type="line"/>
      <point x="737" y="732" type="line"/>
      <point x="681" y="732"/>
      <point x="655" y="706"/>
      <point x="573" y="568" type="curve" smooth="yes"/>
      <point x="419" y="308" type="line"/>
      <point x="419" y="189" type="line" smooth="yes"/>
      <point x="419" y="59"/>
      <point x="432" y="38"/>
      <point x="528" y="38" type="curve"/>
      <point x="528" y="0" type="line"/>
      <point x="204" y="0" type="line"/>
      <point x="204" y="38" type="line"/>
      <point x="299" y="38"/>
      <point x="314" y="60"/>
      <point x="314" y="182" type="curve" smooth="yes"/>
      <point x="314" y="304" type="line"/>
    </contour>
  </outline>
</glyph>
<glyph name="asciicircum" format="1">
  <advance width="480"/>
  <unicode hex="005E"/>
  <outline>
    <contour>
      <point x="195" y="409" type="line"/>
      <point x="76" y="230" type="line"/>
      <point x="121" y="230" type="line"/>
      <point x="240" y="348" type="line"/>
      <point x="359" y="230" type="line"/>
      <point x="404" y="230" type="line"/>
      <point x="285" y="409" type="line"/>
    </contour>
  </outline>
</glyph>
<glyph name="f" format="1">
  <advance width="412"/>
  <unicode hex="0066"/>
  <outline>
    <contour>
      <point x="22" y="467" type="line"/>
      <point x="135" y="467" type="line"/>
      <point x="135" y="153" type="line" smooth="yes"/>
      <point x="135" y="52"/>
      <point x="125" y="39"/>
      <point x="49" y="35" type="curve"/>
      <point x="49" y="0" type="line"/>
      <point x="333" y="0" type="line"/>
      <point x="333" y="35" type="line"/>
      <point x="249" y="37"/>
      <point x="229" y="62"/>
      <point x="229" y="161" type="curve" smooth="yes"/>
      <point x="229" y="467" type="line"/>
      <point x="390" y="467" type="line"/>
      <point x="390" y="514" type="line"/>
      <point x="229" y="514" type="line"/>
      <point x="229" y="592" type="line" smooth="yes"/>
      <point x="229" y="659"/>
      <point x="233" y="695"/>
      <point x="245" y="721" type="curve" smooth="yes"/>
      <point x="262" y="761"/>
      <point x="291" y="782"/>
      <point x="331" y="782" type="curve" smooth="yes"/>
      <point x="356" y="782"/>
      <point x="370" y="776"/>
      <point x="403" y="748" type="curve" smooth="yes"/>
      <point x="432" y="724"/>
      <point x="448" y="715"/>
      <point x="464" y="715" type="curve" smooth="yes"/>
      <point x="489" y="715"/>
      <point x="508" y="735"/>
      <point x="508" y="762" type="curve" smooth="yes"/>
      <point x="508" y="802"/>
      <point x="450" y="830"/>
      <point x="368" y="830" type="curve" smooth="yes"/>
      <point x="219" y="830"/>
      <point x="135" y="739"/>
      <point x="135" y="586" type="curve" smooth="yes"/>
      <point x="135" y="514" type="line"/>
      <point x="22" y="514" type="line"/>
    </contour>
  </outline>
</glyph>
<glyph name="i" format="1">
  <advance width="341"/>
  <unicode hex="0069"/>
  <outline>
    <contour>
      <point x="179" y="0" type="move" name="bottom"/>
    </contour>
    <contour>
      <point x="176" y="651" type="move" name="top"/>
    </contour>
    <contour>
      <point x="228" y="540" type="line"/>
      <point x="32" y="502" type="line"/>
      <point x="32" y="467" type="line"/>
      <point x="98" y="467"/>
      <point x="117" y="458"/>
      <point x="123" y="427" type="curve" smooth="yes"/>
      <point x="128" y="409"/>
      <point x="130" y="357"/>
      <point x="130" y="280" type="curve" smooth="yes"/>
      <point x="130" y="152" type="line" smooth="yes"/>
      <point x="130" y="58"/>
      <point x="115" y="39"/>
      <point x="34" y="35" type="curve"/>
      <point x="34" y="0" type="line"/>
      <point x="321" y="0" type="line"/>
      <point x="321" y="35" type="line"/>
      <point x="242" y="38"/>
      <point x="228" y="56"/>
      <point x="228" y="159" type="curve" smooth="yes"/>
    </contour>
    <contour>
      <point x="113" y="743" type="curve" smooth="yes"/>
      <point x="113" y="708"/>
      <point x="140" y="681"/>
      <point x="175" y="681" type="curve" smooth="yes"/>
      <point x="210" y="681"/>
      <point x="237" y="708"/>
      <point x="237" y="743" type="curve" smooth="yes"/>
      <point x="237" y="778"/>
      <point x="210" y="805"/>
      <point x="175" y="805" type="curve" smooth="yes"/>
      <point x="140" y="805"/>
      <point x="113" y="778"/>
    </contour>
  </outline>
</glyph>
<glyph name="k" format="1">
  <advance width="616"/>
  <unicode hex="006B"/>
  <outline>
    <contour>
      <point x="326" y="0" type="move" name="bottom"/>
    </contour>
    <contour>
      <point x="348" y="0" type="line"/>
      <point x="611" y="0" type="line"/>
      <point x="611" y="35" type="line"/>
      <point x="560" y="35"/>
      <point x="543" y="46"/>
      <point x="505" y="90" type="curve" smooth="yes"/>
      <point x="307" y="314" type="line"/>
      <point x="451" y="442" type="line" smooth="yes"/>
      <point x="500" y="485"/>
      <point x="519" y="495"/>
      <point x="569" y="495" type="curve"/>
      <point x="569" y="530" type="line"/>
      <point x="309" y="530" type="line"/>
      <point x="309" y="495" type="line"/>
      <point x="361" y="495"/>
      <point x="390" y="485"/>
      <point x="390" y="471" type="curve" smooth="yes"/>
      <point x="390" y="457"/>
      <point x="361" y="431"/>
      <point x="301" y="372" type="curve" smooth="yes"/>
      <point x="208" y="281" type="line"/>
      <point x="208" y="830" type="line"/>
      <point x="15" y="792" type="line"/>
      <point x="15" y="758" type="line"/>
      <point x="62" y="758"/>
      <point x="89" y="758"/>
      <point x="101" y="739" type="curve" smooth="yes"/>
      <point x="113" y="721"/>
      <point x="113" y="672"/>
      <point x="113" y="571" type="curve" smooth="yes"/>
      <point x="113" y="152" type="line" smooth="yes"/>
      <point x="113" y="57"/>
      <point x="97" y="38"/>
      <point x="17" y="35" type="curve"/>
      <point x="17" y="0" type="line"/>
      <point x="301" y="0" type="line"/>
      <point x="301" y="35" type="line"/>
      <point x="221" y="38"/>
      <point x="208" y="56"/>
      <point x="208" y="159" type="curve" smooth="yes"/>
      <point x="208" y="218" type="line"/>
      <point x="245" y="253" type="line"/>
      <point x="351" y="125" type="line" smooth="yes"/>
      <point x="383" y="86"/>
      <point x="405" y="56"/>
      <point x="406" y="46" type="curve" smooth="yes"/>
      <point x="406" y="39"/>
      <point x="392" y="35"/>
      <point x="348" y="35" type="curve"/>
    </contour>
  </outline>
</glyph>
<glyph name="r" format="1">
  <advance width="477"/>
  <unicode hex="0072"/>
  <outline>
    <contour>
      <point x="270" y="651" type="move" name="top"/>
    </contour>
    <contour>
      <point x="175" y="0" type="move" name="bottom"/>
    </contour>
    <contour>
      <point x="222" y="193" type="line" smooth="yes"/>
      <point x="222" y="246"/>
      <point x="228" y="297"/>
      <point x="239" y="335" type="curve" smooth="yes"/>
      <point x="259" y="405"/>
      <point x="299" y="457"/>
      <point x="335" y="457" type="curve" smooth="yes"/>
      <point x="359" y="457"/>
      <point x="372" y="432"/>
      <point x="414" y="432" type="curve" smooth="yes"/>
      <point x="451" y="432"/>
      <point x="472" y="451"/>
      <point x="472" y="483" type="curve" smooth="yes"/>
      <point x="472" y="518"/>
      <point x="446" y="540"/>
      <point x="403" y="540" type="curve" smooth="yes"/>
      <point x="335" y="540"/>
      <point x="265" y="485"/>
      <point x="229" y="405" type="curve"/>
      <point x="225" y="405" type="line"/>
      <point x="211" y="529" type="line"/>
      <point x="36" y="491" type="line"/>
      <point x="36" y="456" type="line"/>
      <point x="122" y="456"/>
      <point x="124" y="451"/>
      <point x="124" y="269" type="curve" smooth="yes"/>
      <point x="124" y="152" type="line" smooth="yes"/>
      <point x="124" y="51"/>
      <point x="115" y="39"/>
      <point x="38" y="35" type="curve"/>
      <point x="38" y="0" type="line"/>
      <point x="304" y="0" type="line"/>
      <point x="304" y="35" type="line"/>
      <point x="228" y="40"/>
      <point x="222" y="49"/>
      <point x="222" y="159" type="curve" smooth="yes"/>
    </contour>
  </outline>
</glyph>
<glyph name="s" format="1">
  <advance width="454"/>
  <unicode hex="0073"/>
  <outline>
    <contour>
      <point x="223" y="651" type="move" name="top"/>
    </contour>
    <contour>
      <point x="240" y="1" type="move" name="bottom"/>
    </contour>
    <contour>
      <point x="106" y="35" type="line"/>
      <point x="142" y="6"/>
      <point x="188" y="-10"/>
      <point x="240" y="-10" type="curve" smooth="yes"/>
      <point x="339" y="-10"/>
      <point x="407" y="48"/>
      <point x="407" y="142" type="curve" smooth="yes"/>
      <point x="407" y="218"/>
      <point x="362" y="252"/>
      <point x="247" y="324" type="curve" smooth="yes"/>
      <point x="179" y="366"/>
      <point x="149" y="387"/>
      <point x="149" y="431" type="curve" smooth="yes"/>
      <point x="149" y="474"/>
      <point x="179" y="499"/>
      <point x="224" y="499" type="curve" smooth="yes"/>
      <point x="275" y="499"/>
      <point x="307" y="467"/>
      <point x="336" y="386" type="curve"/>
      <point x="362" y="386" type="line"/>
      <point x="362" y="530" type="line"/>
      <point x="343" y="530" type="line"/>
      <point x="323" y="509" type="line"/>
      <point x="294" y="528"/>
      <point x="252" y="540"/>
      <point x="216" y="540" type="curve" smooth="yes"/>
      <point x="132" y="540"/>
      <point x="67" y="477"/>
      <point x="67" y="386" type="curve" smooth="yes"/>
      <point x="67" y="311"/>
      <point x="112" y="279"/>
      <point x="202" y="222" type="curve" smooth="yes"/>
      <point x="300" y="161"/>
      <point x="318" y="149"/>
      <point x="318" y="110" type="curve" smooth="yes"/>
      <point x="318" y="57"/>
      <point x="284" y="31"/>
      <point x="231" y="31" type="curve" smooth="yes"/>
      <point x="161" y="31"/>
      <point x="115" y="77"/>
      <point x="89" y="172" type="curve"/>
      <point x="64" y="172" type="line"/>
      <point x="64" y="0" type="line"/>
      <point x="86" y="0" type="line"/>
    </contour>
  </outline>
</glyph>
<glyph name="t" format="1">
  <advance width="378"/>
  <unicode hex="0074"/>
  <outline>
    <contour>
      <point x="235" y="0" type="move" name="bottom"/>
    </contour>
    <contour>
      <point x="100" y="467" type="line"/>
      <point x="100" y="112" type="line" smooth="yes"/>
      <point x="100" y="34"/>
      <point x="147" y="-10"/>
      <point x="235" y="-10" type="curve" smooth="yes"/>
      <point x="303" y="-10"/>
      <point x="350" y="17"/>
      <point x="369" y="66" type="curve"/>
      <point x="344" y="85" type="line"/>
      <point x="322" y="52"/>
      <point x="300" y="39"/>
      <point x="267" y="39" type="curve" smooth="yes"/>
      <point x="214" y="39"/>
      <point x="198" y="69"/>
      <point x="198" y="163" type="curve" smooth="yes"/>
      <point x="198" y="467" type="line"/>
      <point x="332" y="467" type="line"/>
      <point x="332" y="514" type="line"/>
      <point x="198" y="514" type="line"/>
      <point x="198" y="640" type="line"/>
      <point x="169" y="640" type="line"/>
      <point x="148" y="583"/>
      <point x="111" y="546"/>
      <point x="40" y="504" type="curve"/>
      <point x="40" y="467" type="line"/>
    </contour>
  </outline>
</glyph>
<glyph name="u" format="1">
  <advance width="670"/>
  <unicode hex="0075"/>
  <outline>
    <contour>
      <point x="313" y="651" type="move" name="top"/>
    </contour>
    <contour>
      <point x="291" y="0" type="move" name="bottom"/>
    </contour>
    <contour>
      <point x="463" y="272" type="line" smooth="yes"/>
      <point x="463" y="215"/>
      <point x="459" y="196"/>
      <point x="446" y="165" type="curve" smooth="yes"/>
      <point x="413" y="88"/>
      <point x="366" y="50"/>
      <point x="309" y="50" type="curve" smooth="yes"/>
      <point x="235" y="50"/>
      <point x="202" y="113"/>
      <point x="202" y="257" type="curve" smooth="yes"/>
      <point x="202" y="530" type="line"/>
      <point x="21" y="530" type="line"/>
      <point x="21" y="495" type="line"/>
      <point x="98" y="488"/>
      <point x="104" y="479"/>
      <point x="104" y="370" type="curve" smooth="yes"/>
      <point x="104" y="211" type="line" smooth="yes"/>
      <point x="104" y="129"/>
      <point x="114" y="78"/>
      <point x="136" y="49" type="curve" smooth="yes"/>
      <point x="163" y="13"/>
      <point x="221" y="-10"/>
      <point x="277" y="-10" type="curve" smooth="yes"/>
      <point x="349" y="-10"/>
      <point x="417" y="27"/>
      <point x="468" y="109" type="curve"/>
      <point x="472" y="109" type="line"/>
      <point x="483" y="-11" type="line"/>
      <point x="648" y="1" type="line"/>
      <point x="648" y="36" type="line"/>
      <point x="587" y="36"/>
      <point x="573" y="42"/>
      <point x="567" y="76" type="curve" smooth="yes"/>
      <point x="563" y="100"/>
      <point x="561" y="147"/>
      <point x="561" y="223" type="curve" smooth="yes"/>
      <point x="561" y="530" type="line"/>
      <point x="380" y="530" type="line"/>
      <point x="380" y="495" type="line"/>
      <point x="457" y="487"/>
      <point x="463" y="479"/>
      <point x="463" y="370" type="curve" smooth="yes"/>
    </contour>
  </outline>
</glyph>
<glyph name="v" format="1">
  <advance width="610"/>
  <unicode hex="0076"/>
  <outline>
    <contour>
      <point x="273" y="-11" type="line"/>
      <point x="331" y="-11" type="line"/>
      <point x="478" y="328" type="line" smooth="yes"/>
      <point x="493" y="361"/>
      <point x="519" y="438"/>
      <point x="540" y="467" type="curve" smooth="yes"/>
      <point x="553" y="483"/>
      <point x="571" y="495"/>
      <point x="592" y="495" type="curve"/>
      <point x="592" y="530" type="line"/>
      <point x="393" y="530" type="line"/>
      <point x="393" y="495" type="line"/>
      <point x="446" y="495"/>
      <point x="457" y="486"/>
      <point x="457" y="456" type="curve" smooth="yes"/>
      <point x="457" y="426"/>
      <point x="446" y="389"/>
      <point x="418" y="323" type="curve" smooth="yes"/>
      <point x="327" y="108" type="line"/>
      <point x="323" y="108" type="line"/>
      <point x="217" y="398" type="line" smooth="yes"/>
      <point x="210" y="418"/>
      <point x="203" y="438"/>
      <point x="203" y="460" type="curve" smooth="yes"/>
      <point x="203" y="492"/>
      <point x="217" y="493"/>
      <point x="270" y="495" type="curve"/>
      <point x="270" y="530" type="line"/>
      <point x="5" y="530" type="line"/>
      <point x="5" y="495" type="line"/>
      <point x="57" y="493"/>
      <point x="72" y="487"/>
      <point x="104" y="406" type="curve" smooth="yes"/>
    </contour>
  </outline>
</glyph>
<glyph name="bar" format="1">
  <advance width="290"/>
  <unicode hex="007C"/>
  <outline>
    <contour>
      <point x="105" y="820" type="line"/>
      <point x="105" y="-250" type="line"/>
      <point x="185" y="-250" type="line"/>
      <point x="185" y="820" type="line"/>
    </contour>
  </outline>
</glyph>
<glyph name="brokenbar" format="1">
  <advance width="298"/>
  <unicode hex="00A6"/>
  <outline>
    <contour>
      <point x="109" y="750" type="line"/>
      <point x="109" y="365" type="line"/>
      <point x="189" y="365" type="line"/>
      <point x="189" y="750" type="line"/>
    </contour>
    <contour>
      <point x="109" y="205" type="line"/>
      <point x="109" y="-180" type="line"/>
      <point x="189" y="-180" type="line"/>
      <point x="189" y="205" type="line"/>
    </contour>
  </outline>
</glyph>
<glyph name="section" format="1">
  <advance width="566"/>
  <unicode hex="00A7"/>
  <outline>
    <contour>
      <point x="213" y="292" type="line" smooth="yes"/>
      <point x="165" y="320"/>
      <point x="137" y="360"/>
      <point x="137" y="401" type="curve" smooth="yes"/>
      <point x="137" y="434"/>
      <point x="155" y="454"/>
      <point x="206" y="481" type="curve"/>
      <point x="339" y="402" type="line" smooth="yes"/>
      <point x="398" y="366"/>
      <point x="431" y="321"/>
      <point x="431" y="278" type="curve" smooth="yes"/>
      <point x="431" y="249"/>
      <point x="416" y="228"/>
      <point x="375" y="196" type="curve"/>
    </contour>
    <contour>
      <point x="302" y="112" type="line" smooth="yes"/>
      <point x="386" y="64"/>
      <point x="415" y="31"/>
      <point x="415" y="-18" type="curve" smooth="yes"/>
      <point x="415" y="-88"/>
      <point x="364" y="-129"/>
      <point x="278" y="-129" type="curve" smooth="yes"/>
      <point x="208" y="-129"/>
      <point x="143" y="-103"/>
      <point x="143" y="-74" type="curve" smooth="yes"/>
      <point x="143" y="-51"/>
      <point x="187" y="-31"/>
      <point x="187" y="11" type="curve" smooth="yes"/>
      <point x="187" y="45"/>
      <point x="158" y="73"/>
      <point x="123" y="73" type="curve" smooth="yes"/>
      <point x="85" y="73"/>
      <point x="60" y="40"/>
      <point x="60" y="-10" type="curve" smooth="yes"/>
      <point x="60" y="-105"/>
      <point x="149" y="-174"/>
      <point x="273" y="-174" type="curve" smooth="yes"/>
      <point x="403" y="-174"/>
      <point x="494" y="-97"/>
      <point x="494" y="14" type="curve" smooth="yes"/>
      <point x="494" y="73"/>
      <point x="467" y="126"/>
      <point x="417" y="167" type="curve"/>
      <point x="478" y="212"/>
      <point x="504" y="255"/>
      <point x="504" y="314" type="curve" smooth="yes"/>
      <point x="504" y="396"/>
      <point x="453" y="460"/>
      <point x="330" y="532" type="curve" smooth="yes"/>
      <point x="270" y="567" type="line" smooth="yes"/>
      <point x="193" y="611"/>
      <point x="165" y="645"/>
      <point x="165" y="694" type="curve" smooth="yes"/>
      <point x="165" y="755"/>
      <point x="207" y="790"/>
      <point x="279" y="790" type="curve" smooth="yes"/>
      <point x="334" y="790"/>
      <point x="376" y="770"/>
      <point x="376" y="744" type="curve" smooth="yes"/>
      <point x="376" y="723"/>
      <point x="348" y="717"/>
      <point x="348" y="681" type="curve" smooth="yes"/>
      <point x="348" y="648"/>
      <point x="372" y="625"/>
      <point x="407" y="625" type="curve" smooth="yes"/>
      <point x="445" y="625"/>
      <point x="469" y="653"/>
      <point x="469" y="695" type="curve" smooth="yes"/>
      <point x="469" y="773"/>
      <point x="389" y="830"/>
      <point x="280" y="830" type="curve" smooth="yes"/>
      <point x="165" y="830"/>
      <point x="91" y="765"/>
      <point x="91" y="662" type="curve" smooth="yes"/>
      <point x="91" y="602"/>
      <point x="116" y="547"/>
      <point x="162" y="509" type="curve"/>
      <point x="98" y="483"/>
      <point x="63" y="431"/>
      <point x="63" y="361" type="curve" smooth="yes"/>
      <point x="63" y="276"/>
      <point x="112" y="218"/>
      <point x="243" y="145" type="curve" smooth="yes"/>
    </contour>
  </outline>
</glyph>
<glyph name="logicalnot" format="1">
  <advance width="625"/>
  <unicode hex="00AC"/>
  <outline>
    <contour>
      <point x="491" y="110" type="line"/>
      <point x="541" y="110" type="line"/>
      <point x="541" y="363" type="line"/>
      <point x="83" y="363" type="line"/>
      <point x="83" y="313" type="line"/>
      <point x="491" y="313" type="line"/>
    </contour>
  </outline>
</glyph>
<glyph name="macron" format="1">
  <advance width="310"/>
  <unicode hex="00AF"/>
  <outline>
    <contour>
      <point x="155" y="651" type="move" name="_top"/>
    </contour>
    <contour>
      <point x="290" y="702" type="line"/>
      <point x="290" y="752" type="line"/>
      <point x="20" y="752" type="line"/>
      <point x="20" y="702" type="line"/>
    </contour>
  </outline>
</glyph>
<glyph name="mu" format="1">
  <advance width="721"/>
  <unicode hex="00B5"/>
  <outline>
    <contour>
      <point x="339" y="651" type="move" name="top"/>
    </contour>
    <contour>
      <point x="317" y="0" type="move" name="bottom"/>
    </contour>
    <contour>
      <point x="207" y="82" type="line"/>
      <point x="234" y="22"/>
      <point x="277" y="-10"/>
      <point x="331" y="-10" type="curve" smooth="yes"/>
      <point x="393" y="-10"/>
      <point x="452" y="32"/>
      <point x="494" y="109" type="curve"/>
      <point x="498" y="109" type="line"/>
      <point x="509" y="-11" type="line"/>
      <point x="674" y="1" type="line"/>
      <point x="674" y="36" type="line"/>
      <point x="612" y="36"/>
      <point x="599" y="43"/>
      <point x="593" y="76" type="curve" smooth="yes"/>
      <point x="589" y="100"/>
      <point x="587" y="148"/>
      <point x="587" y="223" type="curve" smooth="yes"/>
      <point x="587" y="530" type="line"/>
      <point x="406" y="530" type="line"/>
      <point x="406" y="495" type="line"/>
      <point x="477" y="495"/>
      <point x="489" y="477"/>
      <point x="489" y="370" type="curve" smooth="yes"/>
      <point x="489" y="272" type="line" smooth="yes"/>
      <point x="489" y="216"/>
      <point x="486" y="196"/>
      <point x="472" y="165" type="curve" smooth="yes"/>
      <point x="436" y="81"/>
      <point x="394" y="44"/>
      <point x="336" y="44" type="curve" smooth="yes"/>
      <point x="260" y="44"/>
      <point x="228" y="108"/>
      <point x="228" y="257" type="curve" smooth="yes"/>
      <point x="228" y="530" type="line"/>
      <point x="47" y="530" type="line"/>
      <point x="47" y="495" type="line"/>
      <point x="118" y="495"/>
      <point x="130" y="476"/>
      <point x="130" y="370" type="curve" smooth="yes"/>
      <point x="130" y="-198" type="line" smooth="yes"/>
      <point x="130" y="-233"/>
      <point x="155" y="-260"/>
      <point x="188" y="-260" type="curve" smooth="yes"/>
      <point x="222" y="-260"/>
      <point x="244" y="-233"/>
      <point x="244" y="-190" type="curve" smooth="yes"/>
      <point x="244" y="-153"/>
      <point x="224" y="-23"/>
      <point x="203" y="81" type="curve"/>
    </contour>
  </outline>
</glyph>
<glyph name="onehalf" format="1">
  <advance width="675"/>
  <unicode hex="00BD"/>
  <outline>
    <contour>
      <point x="632" y="770" type="line"/>
      <point x="584" y="770" type="line"/>
      <point x="31" y="0" type="line"/>
      <point x="88" y="0" type="line"/>
    </contour>
    <component base="onesuperior" xOffset="72"/>
    <component base="twoinferior" xOffset="335"/>
  </outline>
</glyph>
<glyph name="AE" format="1">
  <advance width="1051"/>
  <unicode hex="00C6"/>
  <outline>
    <contour>
      <point x="370" y="38" type="curve"/>
      <point x="370" y="0" type="line"/>
      <point x="991" y="0" type="line"/>
      <point x="1006" y="197" type="line"/>
      <point x="968" y="197" type="line"/>
      <point x="942" y="79"/>
      <point x="892" y="43"/>
      <point x="751" y="43" type="curve" smooth="yes"/>
      <point x="625" y="43"/>
      <point x="585" y="70"/>
      <point x="585" y="157" type="curve" smooth="yes"/>
      <point x="585" y="383" type="line"/>
      <point x="721" y="382"/>
      <point x="760" y="359"/>
      <point x="774" y="265" type="curve"/>
      <point x="809" y="265" type="line"/>
      <point x="809" y="538" type="line"/>
      <point x="774" y="538" type="line"/>
      <point x="765" y="445"/>
      <point x="714" y="423"/>
      <point x="585" y="423" type="curve"/>
      <point x="585" y="710" type="line" smooth="yes"/>
      <point x="585" y="720"/>
      <point x="591" y="727"/>
      <point x="602" y="727" type="curve" smooth="yes"/>
      <point x="729" y="727" type="line" smooth="yes"/>
      <point x="865" y="727"/>
      <point x="911" y="700"/>
      <point x="927" y="594" type="curve"/>
      <point x="962" y="594" type="line"/>
      <point x="962" y="770" type="line"/>
      <point x="326" y="770" type="line"/>
      <point x="326" y="732" type="line"/>
      <point x="387" y="732"/>
      <point x="409" y="725"/>
      <point x="409" y="707" type="curve" smooth="yes"/>
      <point x="409" y="700"/>
      <point x="406" y="693"/>
      <point x="402" y="684" type="curve" smooth="yes"/>
      <point x="173" y="241"/>
      <point x="140" y="187"/>
      <point x="102" y="119" type="curve" smooth="yes"/>
      <point x="71" y="63"/>
      <point x="50" y="45"/>
      <point x="-11" y="38" type="curve"/>
      <point x="-11" y="0" type="line"/>
      <point x="231" y="0" type="line"/>
      <point x="231" y="38" type="line"/>
      <point x="199" y="41"/>
      <point x="158" y="38"/>
      <point x="158" y="78" type="curve" smooth="yes"/>
      <point x="158" y="121"/>
      <point x="205" y="198"/>
      <point x="245" y="275" type="curve" smooth="yes"/>
      <point x="249" y="284" type="line"/>
      <point x="480" y="284" type="line"/>
      <point x="480" y="152" type="line" smooth="yes"/>
      <point x="480" y="58"/>
      <point x="464" y="41"/>
    </contour>
    <contour>
      <point x="273" y="329" type="line"/>
      <point x="480" y="721" type="line"/>
      <point x="480" y="329" type="line"/>
    </contour>
  </outline>
</glyph>
<glyph name="Eth" format="1">
  <advance width="882"/>
  <unicode hex="00D0"/>
  <outline>
    <contour>
      <point x="76" y="383" type="line"/>
      <point x="76" y="436" type="line"/>
      <point x="156" y="436" type="line"/>
      <point x="156" y="618" type="line" smooth="yes"/>
      <point x="156" y="711"/>
      <point x="142" y="728"/>
      <point x="56" y="732" type="curve"/>
      <point x="56" y="770" type="line"/>
      <point x="407" y="770" type="line" smooth="yes"/>
      <point x="648" y="770"/>
      <point x="823" y="602"/>
      <point x="823" y="372" type="curve" smooth="yes"/>
      <point x="823" y="153"/>
      <point x="660" y="0"/>
      <point x="427" y="0" type="curve" smooth="yes"/>
      <point x="36" y="0" type="line"/>
      <point x="36" y="38" type="line"/>
      <point x="138" y="41"/>
      <point x="156" y="57"/>
      <point x="156" y="152" type="curve" smooth="yes"/>
      <point x="156" y="383" type="line"/>
    </contour>
    <contour>
      <point x="278" y="721" type="line" smooth="yes"/>
      <point x="267" y="721"/>
      <point x="261" y="714"/>
      <point x="261" y="704" type="curve" smooth="yes"/>
      <point x="261" y="436" type="line"/>
      <point x="425" y="436" type="line"/>
      <point x="425" y="383" type="line"/>
      <point x="261" y="383" type="line"/>
      <point x="261" y="163" type="line" smooth="yes"/>
      <point x="261" y="86"/>
      <point x="309" y="49"/>
      <point x="410" y="49" type="curve" smooth="yes"/>
      <point x="591" y="49"/>
      <point x="693" y="160"/>
      <point x="693" y="370" type="curve" smooth="yes"/>
      <point x="693" y="591"/>
      <point x="583" y="721"/>
      <point x="405" y="721" type="curve" smooth="yes"/>
    </contour>
  </outline>
</glyph>
<glyph name="Thorn" format="1">
  <advance width="699"/>
  <unicode hex="00DE"/>
  <outline>
    <contour>
      <point x="262" y="613" type="line" smooth="yes"/>
      <point x="262" y="712"/>
      <point x="279" y="732"/>
      <point x="400" y="732" type="curve"/>
      <point x="400" y="770" type="line"/>
      <point x="47" y="770" type="line"/>
      <point x="47" y="732" type="line"/>
      <point x="141" y="729"/>
      <point x="157" y="712"/>
      <point x="157" y="618" type="curve" smooth="yes"/>
      <point x="157" y="152" type="line" smooth="yes"/>
      <point x="157" y="58"/>
      <point x="141" y="41"/>
      <point x="47" y="38" type="curve"/>
      <point x="47" y="0" type="line"/>
      <point x="400" y="0" type="line"/>
      <point x="400" y="38" type="line"/>
      <point x="279" y="38"/>
      <point x="262" y="58"/>
      <point x="262" y="157" type="curve" smooth="yes"/>
      <point x="262" y="176" type="line"/>
      <point x="352" y="176" type="line" smooth="yes"/>
      <point x="575" y="176"/>
      <point x="660" y="251"/>
      <point x="660" y="391" type="curve" smooth="yes"/>
      <point x="660" y="512"/>
      <point x="554" y="596"/>
      <point x="371" y="596" type="curve" smooth="yes"/>
      <point x="262" y="596" type="line"/>
    </contour>
    <contour>
      <point x="262" y="532" type="line" smooth="yes"/>
      <point x="262" y="542"/>
      <point x="268" y="549"/>
      <point x="279" y="549" type="curve" smooth="yes"/>
      <point x="371" y="549" type="line" smooth="yes"/>
      <point x="480" y="549"/>
      <point x="530" y="503"/>
      <point x="530" y="391" type="curve" smooth="yes"/>
      <point x="530" y="274"/>
      <point x="465" y="226"/>
      <point x="333" y="226" type="curve" smooth="yes"/>
      <point x="262" y="226" type="line"/>
    </contour>
  </outline>
</glyph>
<glyph name="germandbls" format="1">
  <advance width="658"/>
  <unicode hex="00DF"/>
  <outline>
    <contour>
      <point x="338" y="830" type="curve" smooth="yes"/>
      <point x="195" y="830"/>
      <point x="110" y="737"/>
      <point x="110" y="586" type="curve" smooth="yes"/>
      <point x="110" y="153" type="line" smooth="yes"/>
      <point x="110" y="52"/>
      <point x="99" y="38"/>
      <point x="24" y="38" type="curve"/>
      <point x="24" y="0" type="line"/>
      <point x="268" y="0" type="line"/>
      <point x="268" y="38" type="line"/>
      <point x="216" y="38"/>
      <point x="204" y="62"/>
      <point x="204" y="161" type="curve" smooth="yes"/>
      <point x="204" y="592" type="line" smooth="yes"/>
      <point x="204" y="660"/>
      <point x="208" y="693"/>
      <point x="220" y="719" type="curve" smooth="yes"/>
      <point x="238" y="759"/>
      <point x="275" y="780"/>
      <point x="324" y="780" type="curve" smooth="yes"/>
      <point x="393" y="780"/>
      <point x="429" y="730"/>
      <point x="429" y="633" type="curve" smooth="yes"/>
      <point x="429" y="533"/>
      <point x="390" y="487"/>
      <point x="305" y="487" type="curve"/>
      <point x="305" y="436" type="line"/>
      <point x="432" y="436"/>
      <point x="490" y="340"/>
      <point x="490" y="215" type="curve" smooth="yes"/>
      <point x="490" y="113"/>
      <point x="452" y="36"/>
      <point x="407" y="36" type="curve" smooth="yes"/>
      <point x="381" y="36"/>
      <point x="375" y="62"/>
      <point x="366" y="84" type="curve" smooth="yes"/>
      <point x="357" y="107"/>
      <point x="342" y="118"/>
      <point x="325" y="118" type="curve" smooth="yes"/>
      <point x="305" y="118"/>
      <point x="290" y="100"/>
      <point x="290" y="70" type="curve" smooth="yes"/>
      <point x="290" y="24"/>
      <point x="331" y="-10"/>
      <point x="400" y="-10" type="curve" smooth="yes"/>
      <point x="516" y="-10"/>
      <point x="610" y="87"/>
      <point x="610" y="218" type="curve" smooth="yes"/>
      <point x="610" y="359"/>
      <point x="522" y="462"/>
      <point x="405" y="462" type="curve"/>
      <point x="405" y="467" type="line"/>
      <point x="509" y="489"/>
      <point x="549" y="553"/>
      <point x="549" y="644" type="curve" smooth="yes"/>
      <point x="549" y="754"/>
      <point x="461" y="830"/>
    </contour>
  </outline>
</glyph>
<glyph name="divide" format="1">
  <advance width="599"/>
  <unicode hex="00F7"/>
  <outline>
    <contour>
      <point x="237" y="162" type="curve" smooth="yes"/>
      <point x="237" y="126"/>
      <point x="266" y="97"/>
      <point x="302" y="97" type="curve" smooth="yes"/>
      <point x="339" y="97"/>
      <point x="368" y="126"/>
      <point x="368" y="162" type="curve" smooth="yes"/>
      <point x="368" y="199"/>
      <point x="339" y="228"/>
      <point x="302" y="228" type="curve" smooth="yes"/>
      <point x="266" y="228"/>
      <point x="237" y="199"/>
    </contour>
    <contour>
      <point x="237" y="512" type="curve" smooth="yes"/>
      <point x="237" y="476"/>
      <point x="266" y="447"/>
      <point x="302" y="447" type="curve" smooth="yes"/>
      <point x="339" y="447"/>
      <point x="368" y="476"/>
      <point x="368" y="512" type="curve" smooth="yes"/>
      <point x="368" y="549"/>
      <point x="339" y="578"/>
      <point x="302" y="578" type="curve" smooth="yes"/>
      <point x="266" y="578"/>
      <point x="237" y="549"/>
    </contour>
    <contour>
      <point x="534" y="363" type="line"/>
      <point x="66" y="363" type="line"/>
      <point x="66" y="313" type="line"/>
      <point x="534" y="313" type="line"/>
    </contour>
  </outline>
</glyph>
<glyph name="eng" format="1">
  <advance width="664"/>
  <unicode hex="014B"/>
  <outline>
    <contour>
      <point x="216" y="291" type="line" smooth="yes"/>
      <point x="216" y="354"/>
      <point x="220" y="371"/>
      <point x="234" y="398" type="curve" smooth="yes"/>
      <point x="262" y="452"/>
      <point x="316" y="486"/>
      <point x="375" y="486" type="curve" smooth="yes"/>
      <point x="458" y="486"/>
      <point x="489" y="433"/>
      <point x="489" y="282" type="curve" smooth="yes"/>
      <point x="489" y="-68" type="line" smooth="yes"/>
      <point x="489" y="-179"/>
      <point x="464" y="-217"/>
      <point x="400" y="-217" type="curve" smooth="yes"/>
      <point x="367" y="-217"/>
      <point x="356" y="-207"/>
      <point x="337" y="-167" type="curve" smooth="yes"/>
      <point x="317" y="-127"/>
      <point x="309" y="-120"/>
      <point x="285" y="-120" type="curve" smooth="yes"/>
      <point x="253" y="-120"/>
      <point x="234" y="-137"/>
      <point x="234" y="-167" type="curve" smooth="yes"/>
      <point x="234" y="-222"/>
      <point x="294" y="-260"/>
      <point x="379" y="-260" type="curve" smooth="yes"/>
      <point x="511" y="-260"/>
      <point x="584" y="-168"/>
      <point x="584" y="-2" type="curve" smooth="yes"/>
      <point x="584" y="324" type="line" smooth="yes"/>
      <point x="584" y="409"/>
      <point x="576" y="453"/>
      <point x="553" y="484" type="curve" smooth="yes"/>
      <point x="526" y="518"/>
      <point x="472" y="540"/>
      <point x="411" y="540" type="curve" smooth="yes"/>
      <point x="332" y="540"/>
      <point x="261" y="503"/>
      <point x="211" y="441" type="curve"/>
      <point x="207" y="441" type="line"/>
      <point x="195" y="540" type="line"/>
      <point x="35" y="502" type="line"/>
      <point x="35" y="470" type="line"/>
      <point x="93" y="470"/>
      <point x="107" y="464"/>
      <point x="115" y="428" type="curve" smooth="yes"/>
      <point x="119" y="411"/>
      <point x="121" y="361"/>
      <point x="121" y="283" type="curve" smooth="yes"/>
      <point x="121" y="150" type="line" smooth="yes"/>
      <point x="121" y="50"/>
      <point x="111" y="39"/>
      <point x="37" y="34" type="curve"/>
      <point x="37" y="0" type="line"/>
      <point x="299" y="0" type="line"/>
      <point x="299" y="34" type="line"/>
      <point x="222" y="39"/>
      <point x="216" y="49"/>
      <point x="216" y="157" type="curve" smooth="yes"/>
    </contour>
  </outline>
</glyph>
<glyph name="aringacute" format="1">
  <advance width="554"/>
  <unicode hex="01FB"/>
  <outline>
    <contour>
      <point x="183" y="738" type="curve" smooth="yes"/>
      <point x="183" y="731"/>
      <point x="184" y="724"/>
      <point x="185" y="717" type="curve"/>
      <point x="125" y="661" type="line"/>
      <point x="179" y="661" type="line"/>
      <point x="211" y="676" type="line"/>
      <point x="225" y="665"/>
      <point x="242" y="659"/>
      <point x="262" y="659" type="curve" smooth="yes"/>
      <point x="308" y="659"/>
      <point x="342" y="694"/>
      <point x="342" y="738" type="curve" smooth="yes"/>
      <point x="342" y="743"/>
      <point x="341" y="749"/>
      <point x="340" y="754" type="curve"/>
      <point x="367" y="769"/>
      <point x="383" y="786"/>
      <point x="383" y="804" type="curve" smooth="yes"/>
      <point x="383" y="820"/>
      <point x="371" y="830"/>
      <point x="354" y="830" type="curve" smooth="yes"/>
      <point x="338" y="830"/>
      <point x="324" y="824"/>
      <point x="307" y="807" type="curve"/>
      <point x="295" y="815"/>
      <point x="279" y="820"/>
      <point x="262" y="820" type="curve" smooth="yes"/>
      <point x="217" y="820"/>
      <point x="183" y="786"/>
    </contour>
    <contour>
      <point x="220" y="738" type="curve" smooth="yes"/>
      <point x="220" y="763"/>
      <point x="237" y="780"/>
      <point x="262" y="780" type="curve" smooth="yes"/>
      <point x="287" y="780"/>
      <point x="304" y="763"/>
      <point x="304" y="738" type="curve" smooth="yes"/>
      <point x="304" y="714"/>
      <point x="287" y="697"/>
      <point x="262" y="697" type="curve" smooth="yes"/>
      <point x="237" y="697"/>
      <point x="220" y="714"/>
    </contour>
    <component base="a"/>
  </outline>
</glyph>
<glyph name="breve" format="1">
  <advance width="316"/>
  <unicode hex="02D8"/>
  <outline>
    <contour>
      <point x="158" y="651" type="move" name="_top"/>
    </contour>
    <contour>
      <point x="259" y="776" type="line"/>
      <point x="248" y="739"/>
      <point x="207" y="715"/>
      <point x="157" y="715" type="curve" smooth="yes"/>
      <point x="108" y="715"/>
      <point x="68" y="739"/>
      <point x="56" y="776" type="curve"/>
      <point x="20" y="776" type="line"/>
      <point x="23" y="701"/>
      <point x="81" y="646"/>
      <point x="158" y="646" type="curve" smooth="yes"/>
      <point x="233" y="646"/>
      <point x="291" y="700"/>
      <point x="296" y="776" type="curve"/>
    </contour>
  </outline>
</glyph>
<glyph name="endash" format="1">
  <advance width="724"/>
  <unicode hex="2013"/>
  <outline>
    <contour>
      <point x="647" y="248" type="line"/>
      <point x="647" y="331" type="line"/>
      <point x="77" y="331" type="line"/>
      <point x="77" y="248" type="line"/>
    </contour>
  </outline>
</glyph>
<glyph name="quoteright" format="1">
  <advance width="254"/>
  <unicode hex="2019"/>
  <outline>
    <contour>
      <point x="87" y="559" type="line"/>
      <point x="178" y="626"/>
      <point x="206" y="668"/>
      <point x="206" y="736" type="curve" smooth="yes"/>
      <point x="206" y="797"/>
      <point x="181" y="830"/>
      <point x="135" y="830" type="curve" smooth="yes"/>
      <point x="94" y="830"/>
      <point x="67" y="805"/>
      <point x="67" y="769" type="curve" smooth="yes"/>
      <point x="67" y="737"/>
      <point x="88" y="714"/>
      <point x="119" y="714" type="curve" smooth="yes"/>
      <point x="130" y="714"/>
      <point x="141" y="717"/>
      <point x="149" y="722" type="curve"/>
      <point x="149" y="671"/>
      <point x="125" y="632"/>
      <point x="64" y="586" type="curve"/>
    </contour>
  </outline>
</glyph>
<glyph name="quotedblbase" format="1">
  <advance width="467"/>
  <unicode hex="201E"/>
  <outline>
    <contour>
      <point x="89" y="-165" type="line"/>
      <point x="180" y="-98"/>
      <point x="208" y="-56"/>
      <point x="208" y="12" type="curve" smooth="yes"/>
      <point x="208" y="73"/>
      <point x="183" y="106"/>
      <point x="137" y="106" type="curve" smooth="yes"/>
      <point x="96" y="106"/>
      <point x="69" y="81"/>
      <point x="69" y="45" type="curve" smooth="yes"/>
      <point x="69" y="13"/>
      <point x="90" y="-10"/>
      <point x="121" y="-10" type="curve" smooth="yes"/>
      <point x="132" y="-10"/>
      <point x="143" y="-7"/>
      <point x="151" y="-2" type="curve"/>
      <point x="151" y="-53"/>
      <point x="127" y="-92"/>
      <point x="66" y="-138" type="curve"/>
    </contour>
    <contour>
      <point x="281" y="-165" type="line"/>
      <point x="372" y="-98"/>
      <point x="400" y="-56"/>
      <point x="400" y="12" type="curve" smooth="yes"/>
      <point x="400" y="73"/>
      <point x="375" y="106"/>
      <point x="329" y="106" type="curve" smooth="yes"/>
      <point x="288" y="106"/>
      <point x="261" y="81"/>
      <point x="261" y="45" type="curve" smooth="yes"/>
      <point x="261" y="13"/>
      <point x="282" y="-10"/>
      <point x="313" y="-10" type="curve" smooth="yes"/>
      <point x="324" y="-10"/>
      <point x="335" y="-7"/>
      <point x="343" y="-2" type="curve"/>
      <point x="343" y="-53"/>
      <point x="319" y="-92"/>
      <point x="258" y="-138" type="curve"/>
    </contour>
  </outline>
</glyph>
<glyph name="perthousand" format="1">
  <advance width="916"/>
  <unicode hex="2030"/>
  <outline>
    <contour>
      <point x="636" y="770" type="line"/>
      <point x="588" y="770" type="line"/>
      <point x="35" y="0" type="line"/>
      <point x="92" y="0" type="line"/>
    </contour>
    <component base="zerosuperior" xOffset="45"/>
    <component base="zeroinferior" xOffset="607"/>
    <component base="zeroinferior" xOffset="316"/>
  </outline>
</glyph>
<glyph name="fivesuperior" format="1">
  <advance width="261"/>
  <unicode hex="2075"/>
  <outline>
    <contour>
      <point x="110" y="732" type="line"/>
      <point x="146" y="732" type="line" smooth="yes"/>
      <point x="182" y="732"/>
      <point x="207" y="750"/>
      <point x="213" y="780" type="curve"/>
      <point x="209" y="780" type="line"/>
      <point x="202" y="777"/>
      <point x="171" y="773"/>
      <point x="148" y="773" type="curve" smooth="yes"/>
      <point x="128" y="773"/>
      <point x="110" y="776"/>
      <point x="101" y="780" type="curve"/>
      <point x="59" y="622" type="line" smooth="yes"/>
      <point x="58" y="619"/>
      <point x="57" y="613"/>
      <point x="57" y="611" type="curve" smooth="yes"/>
      <point x="57" y="606"/>
      <point x="60" y="604"/>
      <point x="66" y="604" type="curve" smooth="yes"/>
      <point x="73" y="604"/>
      <point x="77" y="607"/>
      <point x="81" y="615" type="curve" smooth="yes"/>
      <point x="95" y="640"/>
      <point x="108" y="650"/>
      <point x="129" y="650" type="curve" smooth="yes"/>
      <point x="158" y="650"/>
      <point x="171" y="630"/>
      <point x="171" y="587" type="curve" smooth="yes"/>
      <point x="171" y="526"/>
      <point x="144" y="487"/>
      <point x="100" y="487" type="curve" smooth="yes"/>
      <point x="82" y="487"/>
      <point x="73" y="493"/>
      <point x="66" y="510" type="curve" smooth="yes"/>
      <point x="54" y="538"/>
      <point x="49" y="542"/>
      <point x="38" y="542" type="curve" smooth="yes"/>
      <point x="28" y="542"/>
      <point x="21" y="535"/>
      <point x="21" y="519" type="curve" smooth="yes"/>
      <point x="21" y="486"/>
      <point x="53" y="464"/>
      <point x="101" y="464" type="curve" smooth="yes"/>
      <point x="172" y="464"/>
      <point x="226" y="513"/>
      <point x="226" y="577" type="curve" smooth="yes"/>
      <point x="226" y="636"/>
      <point x="189" y="672"/>
      <point x="135" y="672" type="curve" smooth="yes"/>
      <point x="118" y="672"/>
      <point x="104" y="668"/>
      <point x="95" y="661" type="curve"/>
      <point x="92" y="663" type="line"/>
    </contour>
  </outline>
</glyph>
<glyph name="ninesuperior" format="1">
  <advance width="292"/>
  <unicode hex="2079"/>
  <outline>
    <contour>
      <point x="35" y="672" type="curve" smooth="yes"/>
      <point x="35" y="616"/>
      <point x="78" y="573"/>
      <point x="135" y="573" type="curve" smooth="yes"/>
      <point x="162" y="573"/>
      <point x="183" y="584"/>
      <point x="200" y="609" type="curve"/>
      <point x="204" y="608" type="line"/>
      <point x="204" y="539"/>
      <point x="174" y="487"/>
      <point x="140" y="487" type="curve" smooth="yes"/>
      <point x="96" y="487"/>
      <point x="110" y="526"/>
      <point x="76" y="526" type="curve" smooth="yes"/>
      <point x="63" y="526"/>
      <point x="54" y="518"/>
      <point x="54" y="505" type="curve" smooth="yes"/>
      <point x="54" y="482"/>
      <point x="87" y="464"/>
      <point x="129" y="464" type="curve" smooth="yes"/>
      <point x="198" y="464"/>
      <point x="255" y="544"/>
      <point x="255" y="641" type="curve" smooth="yes"/>
      <point x="255" y="723"/>
      <point x="211" y="780"/>
      <point x="146" y="780" type="curve" smooth="yes"/>
      <point x="85" y="780"/>
      <point x="35" y="732"/>
    </contour>
    <contour>
      <point x="200" y="643" type="line"/>
      <point x="183" y="611"/>
      <point x="165" y="597"/>
      <point x="141" y="597" type="curve" smooth="yes"/>
      <point x="108" y="597"/>
      <point x="90" y="624"/>
      <point x="90" y="674" type="curve" smooth="yes"/>
      <point x="90" y="731"/>
      <point x="108" y="757"/>
      <point x="145" y="757" type="curve" smooth="yes"/>
      <point x="181" y="757"/>
      <point x="200" y="725"/>
      <point x="200" y="663" type="curve" smooth="yes"/>
    </contour>
  </outline>
</glyph>
<glyph name="zeroinferior" format="1">
  <advance width="310"/>
  <unicode hex="2080"/>
  <outline>
    <contour>
      <point x="155" y="306" type="curve" smooth="yes"/>
      <point x="90" y="306"/>
      <point x="37" y="236"/>
      <point x="37" y="146" type="curve" smooth="yes"/>
      <point x="37" y="59"/>
      <point x="90" y="-10"/>
      <point x="155" y="-10" type="curve" smooth="yes"/>
      <point x="220" y="-10"/>
      <point x="273" y="59"/>
      <point x="273" y="146" type="curve" smooth="yes"/>
      <point x="273" y="236"/>
      <point x="220" y="306"/>
    </contour>
    <contour>
      <point x="155" y="15" type="curve" smooth="yes"/>
      <point x="116" y="15"/>
      <point x="94" y="44"/>
      <point x="94" y="144" type="curve" smooth="yes"/>
      <point x="94" y="249"/>
      <point x="116" y="281"/>
      <point x="155" y="281" type="curve" smooth="yes"/>
      <point x="194" y="281"/>
      <point x="216" y="249"/>
      <point x="216" y="144" type="curve" smooth="yes"/>
      <point x="216" y="44"/>
      <point x="193" y="15"/>
    </contour>
  </outline>
</glyph>
<glyph name="oneinferior" format="1">
  <advance width="246"/>
  <unicode hex="2081"/>
  <outline>
    <contour>
      <point x="147" y="312" type="line"/>
      <point x="119" y="303"/>
      <point x="87" y="296"/>
      <point x="59" y="295" type="curve"/>
      <point x="59" y="275" type="line"/>
      <point x="86" y="275"/>
      <point x="99" y="273"/>
      <point x="101" y="262" type="curve" smooth="yes"/>
      <point x="103" y="257"/>
      <point x="103" y="235"/>
      <point x="103" y="204" type="curve" smooth="yes"/>
      <point x="103" y="67" type="line" smooth="yes"/>
      <point x="103" y="29"/>
      <point x="97" y="22"/>
      <point x="61" y="20" type="curve"/>
      <point x="61" y="0" type="line"/>
      <point x="189" y="0" type="line"/>
      <point x="189" y="20" type="line"/>
      <point x="153" y="21"/>
      <point x="147" y="29"/>
      <point x="147" y="70" type="curve" smooth="yes"/>
    </contour>
  </outline>
</glyph>
<glyph name="fourinferior" format="1">
  <advance width="274"/>
  <unicode hex="2084"/>
  <outline>
    <contour>
      <point x="20" y="97" type="line"/>
      <point x="161" y="312" type="line"/>
      <point x="183" y="312" type="line"/>
      <point x="183" y="96" type="line"/>
      <point x="217" y="97"/>
      <point x="220" y="101"/>
      <point x="220" y="132" type="curve"/>
      <point x="239" y="132" type="line"/>
      <point x="239" y="38" type="line"/>
      <point x="220" y="38" type="line"/>
      <point x="220" y="67"/>
      <point x="216" y="72"/>
      <point x="183" y="73" type="curve"/>
      <point x="183" y="65" type="line" smooth="yes"/>
      <point x="183" y="24"/>
      <point x="188" y="16"/>
      <point x="215" y="15" type="curve"/>
      <point x="215" y="0" type="line"/>
      <point x="92" y="0" type="line"/>
      <point x="92" y="15" type="line"/>
      <point x="128" y="17"/>
      <point x="134" y="24"/>
      <point x="134" y="62" type="curve" smooth="yes"/>
      <point x="134" y="72" type="line"/>
      <point x="20" y="72" type="line"/>
    </contour>
    <contour>
      <point x="134" y="227" type="line"/>
      <point x="130" y="227" type="line"/>
      <point x="45" y="97" type="line"/>
      <point x="134" y="97" type="line"/>
    </contour>
  </outline>
</glyph>
<glyph name="seveninferior" format="1">
  <advance width="238"/>
  <unicode hex="2087"/>
  <outline>
    <contour>
      <point x="131" y="158" type="line" smooth="yes"/>
      <point x="67" y="44"/>
      <point x="56" y="26"/>
      <point x="56" y="12" type="curve" smooth="yes"/>
      <point x="56" y="-1"/>
      <point x="65" y="-10"/>
      <point x="79" y="-10" type="curve" smooth="yes"/>
      <point x="95" y="-10"/>
      <point x="108" y="6"/>
      <point x="124" y="48" type="curve" smooth="yes"/>
      <point x="158" y="137"/>
      <point x="167" y="166"/>
      <point x="226" y="294" type="curve"/>
      <point x="226" y="302" type="line"/>
      <point x="104" y="302" type="line" smooth="yes"/>
      <point x="78" y="302"/>
      <point x="73" y="304"/>
      <point x="73" y="314" type="curve" smooth="yes"/>
      <point x="73" y="317"/>
      <point x="74" y="324"/>
      <point x="75" y="326" type="curve"/>
      <point x="54" y="326" type="line"/>
      <point x="26" y="214" type="line"/>
      <point x="46" y="214" type="line"/>
      <point x="52" y="230" type="line" smooth="yes"/>
      <point x="63" y="259"/>
      <point x="69" y="262"/>
      <point x="111" y="262" type="curve" smooth="yes"/>
      <point x="185" y="262" type="line"/>
    </contour>
  </outline>
</glyph>
<glyph name="eightinferior" format="1">
  <advance width="280"/>
  <unicode hex="2088"/>
  <outline>
    <contour>
      <point x="150" y="126" type="line" smooth="yes"/>
      <point x="190" y="103"/>
      <point x="200" y="87"/>
      <point x="200" y="62" type="curve" smooth="yes"/>
      <point x="200" y="33"/>
      <point x="172" y="13"/>
      <point x="142" y="13" type="curve" smooth="yes"/>
      <point x="104" y="13"/>
      <point x="80" y="32"/>
      <point x="80" y="68" type="curve" smooth="yes"/>
      <point x="80" y="100"/>
      <point x="98" y="125"/>
      <point x="126" y="140" type="curve"/>
    </contour>
    <contour>
      <point x="177" y="167" type="curve"/>
      <point x="206" y="184"/>
      <point x="229" y="202"/>
      <point x="229" y="236" type="curve" smooth="yes"/>
      <point x="229" y="258"/>
      <point x="217" y="277"/>
      <point x="199" y="289" type="curve" smooth="yes"/>
      <point x="182" y="301"/>
      <point x="159" y="306"/>
      <point x="138" y="306" type="curve" smooth="yes"/>
      <point x="115" y="306"/>
      <point x="90" y="300"/>
      <point x="73" y="284" type="curve" smooth="yes"/>
      <point x="57" y="269"/>
      <point x="47" y="248"/>
      <point x="47" y="227" type="curve" smooth="yes"/>
      <point x="47" y="188"/>
      <point x="73" y="165"/>
      <point x="104" y="148" type="curve"/>
      <point x="69" y="132"/>
      <point x="37" y="107"/>
      <point x="37" y="65" type="curve" smooth="yes"/>
      <point x="37" y="14"/>
      <point x="93" y="-10"/>
      <point x="138" y="-10" type="curve" smooth="yes"/>
      <point x="192" y="-10"/>
      <point x="241" y="24"/>
      <point x="241" y="79" type="curve" smooth="yes"/>
      <point x="241" y="121"/>
      <point x="212" y="149"/>
    </contour>
    <contour>
      <point x="136" y="186" type="line" smooth="yes"/>
      <point x="100" y="205"/>
      <point x="87" y="219"/>
      <point x="87" y="244" type="curve" smooth="yes"/>
      <point x="87" y="264"/>
      <point x="105" y="283"/>
      <point x="137" y="283" type="curve" smooth="yes"/>
      <point x="171" y="283"/>
      <point x="191" y="259"/>
      <point x="191" y="230" type="curve" smooth="yes"/>
      <point x="191" y="210"/>
      <point x="173" y="187"/>
      <point x="155" y="176" type="curve"/>
    </contour>
  </outline>
</glyph>
<glyph name="f_f_i" format="1">
  <advance width="973"/>
  <unicode hex="FB03"/>
  <outline>
    <contour>
      <point x="869" y="540" type="line"/>
      <point x="708" y="514" type="line"/>
      <point x="548" y="514" type="line"/>
      <point x="548" y="592" type="line" smooth="yes"/>
      <point x="548" y="747"/>
      <point x="587" y="782"/>
      <point x="670" y="782" type="curve" smooth="yes"/>
      <point x="704" y="782"/>
      <point x="717" y="778"/>
      <point x="758" y="750" type="curve" smooth="yes"/>
      <point x="789" y="729"/>
      <point x="807" y="720"/>
      <point x="823" y="720" type="curve" smooth="yes"/>
      <point x="848" y="720"/>
      <point x="867" y="740"/>
      <point x="867" y="767" type="curve" smooth="yes"/>
      <point x="867" y="804"/>
      <point x="801" y="830"/>
      <point x="707" y="830" type="curve" smooth="yes"/>
      <point x="607" y="830"/>
      <point x="539" y="794"/>
      <point x="496" y="738" type="curve"/>
      <point x="459" y="772"/>
      <point x="419" y="790"/>
      <point x="365" y="790" type="curve" smooth="yes"/>
      <point x="217" y="790"/>
      <point x="132" y="699"/>
      <point x="132" y="546" type="curve" smooth="yes"/>
      <point x="132" y="514" type="line"/>
      <point x="19" y="514" type="line"/>
      <point x="19" y="467" type="line"/>
      <point x="132" y="467" type="line"/>
      <point x="132" y="153" type="line" smooth="yes"/>
      <point x="132" y="52"/>
      <point x="125" y="35"/>
      <point x="56" y="35" type="curve"/>
      <point x="56" y="0" type="line"/>
      <point x="320" y="0" type="line"/>
      <point x="320" y="35" type="line"/>
      <point x="244" y="35"/>
      <point x="226" y="62"/>
      <point x="226" y="161" type="curve" smooth="yes"/>
      <point x="226" y="467" type="line"/>
      <point x="454" y="467" type="line"/>
      <point x="454" y="153" type="line" smooth="yes"/>
      <point x="454" y="54"/>
      <point x="440" y="35"/>
      <point x="378" y="35" type="curve"/>
      <point x="378" y="0" type="line"/>
      <point x="642" y="0" type="line"/>
      <point x="642" y="35" type="line"/>
      <point x="569" y="35"/>
      <point x="548" y="59"/>
      <point x="548" y="146" type="curve" smooth="yes"/>
      <point x="548" y="467" type="line"/>
      <point x="673" y="467" type="line" smooth="yes"/>
      <point x="740" y="467"/>
      <point x="757" y="458"/>
      <point x="764" y="426" type="curve" smooth="yes"/>
      <point x="768" y="408"/>
      <point x="771" y="357"/>
      <point x="771" y="280" type="curve" smooth="yes"/>
      <point x="771" y="154" type="line" smooth="yes"/>
      <point x="771" y="60"/>
      <point x="758" y="37"/>
      <point x="685" y="37" type="curve"/>
      <point x="685" y="0" type="line"/>
      <point x="942" y="0" type="line"/>
      <point x="942" y="37" type="line"/>
      <point x="881" y="37"/>
      <point x="869" y="58"/>
      <point x="869" y="162" type="curve" smooth="yes"/>
    </contour>
    <contour>
      <point x="226" y="514" type="line"/>
      <point x="226" y="552" type="line" smooth="yes"/>
      <point x="226" y="703"/>
      <point x="263" y="742"/>
      <point x="328" y="742" type="curve" smooth="yes"/>
      <point x="353" y="742"/>
      <point x="371" y="737"/>
      <point x="404" y="709" type="curve" smooth="yes"/>
      <point x="419" y="696"/>
      <point x="437" y="682"/>
      <point x="454" y="670" type="curve"/>
      <point x="454" y="514" type="line"/>
    </contour>
  </outline>
</glyph>
<glyph name="caron.cap" format="1">
  <advance width="368"/>
  <outline>
    <contour>
      <point x="184" y="830" type="move" name="_topcap"/>
    </contour>
    <contour>
      <point x="239" y="851" type="line"/>
      <point x="348" y="960" type="line"/>
      <point x="303" y="960" type="line"/>
      <point x="184" y="906" type="line"/>
      <point x="65" y="960" type="line"/>
      <point x="20" y="960" type="line"/>
      <point x="129" y="851" type="line"/>
    </contour>
  </outline>
</glyph>
<glyph name="f_f_b" format="1">
  <advance width="1350"/>
  <outline>
    <contour>
      <point x="883" y="830" type="line"/>
      <point x="795" y="807" type="line"/>
      <point x="770" y="821"/>
      <point x="732" y="830"/>
      <point x="686" y="830" type="curve" smooth="yes"/>
      <point x="596" y="830"/>
      <point x="536" y="798"/>
      <point x="494" y="739" type="curve"/>
      <point x="467" y="770"/>
      <point x="421" y="790"/>
      <point x="365" y="790" type="curve" smooth="yes"/>
      <point x="217" y="790"/>
      <point x="132" y="699"/>
      <point x="132" y="546" type="curve" smooth="yes"/>
      <point x="132" y="514" type="line"/>
      <point x="19" y="514" type="line"/>
      <point x="19" y="467" type="line"/>
      <point x="132" y="467" type="line"/>
      <point x="132" y="153" type="line" smooth="yes"/>
      <point x="132" y="52"/>
      <point x="123" y="35"/>
      <point x="56" y="35" type="curve"/>
      <point x="56" y="0" type="line"/>
      <point x="320" y="0" type="line"/>
      <point x="320" y="35" type="line"/>
      <point x="244" y="35"/>
      <point x="226" y="62"/>
      <point x="226" y="161" type="curve" smooth="yes"/>
      <point x="226" y="467" type="line"/>
      <point x="454" y="467" type="line"/>
      <point x="454" y="153" type="line" smooth="yes"/>
      <point x="454" y="52"/>
      <point x="444" y="35"/>
      <point x="368" y="35" type="curve"/>
      <point x="368" y="0" type="line"/>
      <point x="642" y="0" type="line"/>
      <point x="642" y="35" type="line"/>
      <point x="566" y="37"/>
      <point x="548" y="62"/>
      <point x="548" y="161" type="curve" smooth="yes"/>
      <point x="548" y="467" type="line"/>
      <point x="709" y="467" type="line"/>
      <point x="709" y="514" type="line"/>
      <point x="548" y="514" type="line"/>
      <point x="548" y="592" type="line" smooth="yes"/>
      <point x="548" y="748"/>
      <point x="583" y="782"/>
      <point x="656" y="782" type="curve" smooth="yes"/>
      <point x="692" y="782"/>
      <point x="719" y="771"/>
      <point x="766" y="730" type="curve" smooth="yes"/>
      <point x="787" y="712" type="line"/>
      <point x="787" y="0" type="line"/>
      <point x="809" y="0" type="line"/>
      <point x="856" y="67" type="line"/>
      <point x="898" y="19"/>
      <point x="969" y="-11"/>
      <point x="1044" y="-11" type="curve" smooth="yes"/>
      <point x="1190" y="-11"/>
      <point x="1302" y="108"/>
      <point x="1302" y="265" type="curve" smooth="yes"/>
      <point x="1302" y="420"/>
      <point x="1191" y="540"/>
      <point x="1047" y="540" type="curve" smooth="yes"/>
      <point x="980" y="540"/>
      <point x="930" y="515"/>
      <point x="887" y="459" type="curve"/>
      <point x="883" y="459" type="line"/>
    </contour>
    <contour>
      <point x="885" y="298" type="line" smooth="yes"/>
      <point x="885" y="428"/>
      <point x="938" y="493"/>
      <point x="1029" y="493" type="curve" smooth="yes"/>
      <point x="1123" y="493"/>
      <point x="1189" y="398"/>
      <point x="1189" y="262" type="curve" smooth="yes"/>
      <point x="1189" y="127"/>
      <point x="1126" y="37"/>
      <point x="1033" y="37" type="curve" smooth="yes"/>
      <point x="947" y="37"/>
      <point x="885" y="109"/>
      <point x="885" y="209" type="curve" smooth="yes"/>
    </contour>
    <contour>
      <point x="226" y="514" type="line"/>
      <point x="226" y="552" type="line" smooth="yes"/>
      <point x="226" y="703"/>
      <point x="263" y="742"/>
      <point x="328" y="742" type="curve" smooth="yes"/>
      <point x="353" y="742"/>
      <point x="371" y="737"/>
      <point x="404" y="709" type="curve" smooth="yes"/>
      <point x="419" y="696"/>
      <point x="437" y="681"/>
      <point x="454" y="670" type="curve"/>
      <point x="454" y="514" type="line"/>
    </contour>
  </outline>
</glyph>
<glyph name="f_f_k" format="1">
  <advance width="1291"/>
  <outline>
    <contour>
      <point x="1023" y="0" type="line"/>
      <point x="1286" y="0" type="line"/>
      <point x="1286" y="35" type="line"/>
      <point x="1243" y="35"/>
      <point x="1217" y="47"/>
      <point x="1180" y="90" type="curve" smooth="yes"/>
      <point x="982" y="314" type="line"/>
      <point x="1126" y="442" type="line" smooth="yes"/>
      <point x="1175" y="485"/>
      <point x="1195" y="495"/>
      <point x="1244" y="495" type="curve"/>
      <point x="1244" y="530" type="line"/>
      <point x="984" y="530" type="line"/>
      <point x="984" y="495" type="line"/>
      <point x="1041" y="495"/>
      <point x="1065" y="485"/>
      <point x="1065" y="475" type="curve" smooth="yes"/>
      <point x="1065" y="463"/>
      <point x="1058" y="452"/>
      <point x="976" y="372" type="curve" smooth="yes"/>
      <point x="883" y="281" type="line"/>
      <point x="883" y="830" type="line"/>
      <point x="795" y="807" type="line"/>
      <point x="770" y="821"/>
      <point x="732" y="830"/>
      <point x="686" y="830" type="curve" smooth="yes"/>
      <point x="596" y="830"/>
      <point x="536" y="798"/>
      <point x="494" y="739" type="curve"/>
      <point x="467" y="770"/>
      <point x="421" y="790"/>
      <point x="365" y="790" type="curve" smooth="yes"/>
      <point x="217" y="790"/>
      <point x="132" y="699"/>
      <point x="132" y="546" type="curve" smooth="yes"/>
      <point x="132" y="514" type="line"/>
      <point x="19" y="514" type="line"/>
      <point x="19" y="467" type="line"/>
      <point x="132" y="467" type="line"/>
      <point x="132" y="153" type="line" smooth="yes"/>
      <point x="132" y="52"/>
      <point x="123" y="35"/>
      <point x="56" y="35" type="curve"/>
      <point x="56" y="0" type="line"/>
      <point x="320" y="0" type="line"/>
      <point x="320" y="35" type="line"/>
      <point x="245" y="35"/>
      <point x="226" y="62"/>
      <point x="226" y="161" type="curve" smooth="yes"/>
      <point x="226" y="467" type="line"/>
      <point x="454" y="467" type="line"/>
      <point x="454" y="153" type="line" smooth="yes"/>
      <point x="454" y="52"/>
      <point x="444" y="35"/>
      <point x="368" y="35" type="curve"/>
      <point x="368" y="0" type="line"/>
      <point x="642" y="0" type="line"/>
      <point x="642" y="35" type="line"/>
      <point x="567" y="35"/>
      <point x="548" y="62"/>
      <point x="548" y="161" type="curve" smooth="yes"/>
      <point x="548" y="467" type="line"/>
      <point x="709" y="467" type="line"/>
      <point x="709" y="514" type="line"/>
      <point x="548" y="514" type="line"/>
      <point x="548" y="592" type="line" smooth="yes"/>
      <point x="548" y="748"/>
      <point x="583" y="782"/>
      <point x="656" y="782" type="curve" smooth="yes"/>
      <point x="692" y="782"/>
      <point x="719" y="771"/>
      <point x="766" y="730" type="curve" smooth="yes"/>
      <point x="788" y="711" type="line"/>
      <point x="788" y="152" type="line" smooth="yes"/>
      <point x="788" y="57"/>
      <point x="772" y="35"/>
      <point x="692" y="35" type="curve"/>
      <point x="692" y="0" type="line"/>
      <point x="976" y="0" type="line"/>
      <point x="976" y="35" type="line"/>
      <point x="897" y="35"/>
      <point x="883" y="56"/>
      <point x="883" y="159" type="curve" smooth="yes"/>
      <point x="883" y="218" type="line"/>
      <point x="920" y="253" type="line"/>
      <point x="1026" y="125" type="line" smooth="yes"/>
      <point x="1072" y="70"/>
      <point x="1081" y="54"/>
      <point x="1081" y="46" type="curve" smooth="yes"/>
      <point x="1081" y="39"/>
      <point x="1072" y="35"/>
      <point x="1023" y="35" type="curve"/>
    </contour>
    <contour>
      <point x="226" y="514" type="line"/>
      <point x="226" y="552" type="line" smooth="yes"/>
      <point x="226" y="703"/>
      <point x="263" y="742"/>
      <point x="328" y="742" type="curve" smooth="yes"/>
      <point x="353" y="742"/>
      <point x="371" y="737"/>
      <point x="404" y="709" type="curve" smooth="yes"/>
      <point x="419" y="696"/>
      <point x="437" y="681"/>
      <point x="454" y="670" type="curve"/>
      <point x="454" y="514" type="line"/>
    </contour>
  </outline>
</glyph>
<glyph name="ring.cap" format="1">
  <advance width="170"/>
  <outline>
    <contour>
      <point x="85" y="830" type="move" name="_topcap"/>
    </contour>
    <contour>
      <point x="20" y="895" type="curve" smooth="yes"/>
      <point x="20" y="858"/>
      <point x="48" y="830"/>
      <point x="85" y="830" type="curve" smooth="yes"/>
      <point x="122" y="830"/>
      <point x="150" y="858"/>
      <point x="150" y="895" type="curve" smooth="yes"/>
      <point x="150" y="932"/>
      <point x="122" y="960"/>
      <point x="85" y="960" type="curve" smooth="yes"/>
      <point x="48" y="960"/>
      <point x="20" y="932"/>
    </contour>
    <contour>
      <point x="51" y="895" type="curve" smooth="yes"/>
      <point x="51" y="914"/>
      <point x="65" y="928"/>
      <point x="85" y="928" type="curve" smooth="yes"/>
      <point x="104" y="928"/>
      <point x="118" y="914"/>
      <point x="118" y="895" type="curve" smooth="yes"/>
      <point x="118" y="875"/>
      <point x="104" y="861"/>
      <point x="85" y="861" type="curve" smooth="yes"/>
      <point x="65" y="861"/>
      <point x="51" y="875"/>
    </contour>
  </outline>
</glyph>
